<?xml version="1.0" standalone="no"?>
<!DOCTYPE svg PUBLIC "-//W3C//DTD SVG 20010904//EN"
 "http://www.w3.org/TR/2001/REC-SVG-20010904/DTD/svg10.dtd">
<svg version="1.0" xmlns="http://www.w3.org/2000/svg"
 width="512.000000pt" height="512.000000pt" viewBox="0 0 512.000000 512.000000"
 preserveAspectRatio="xMidYMid meet">

<g transform="translate(0.000000,512.000000) scale(0.100000,-0.100000)"
fill="#000000" stroke="none">
<path d="M2890 5103 c-451 -48 -713 -217 -846 -548 -32 -80 -51 -150 -75 -276
-8 -39 -15 -215 -18 -454 l-6 -390 -257 -3 -258 -2 0 -435 0 -435 260 0 260 0
0 -1275 0 -1275 515 0 515 0 0 1275 0 1275 344 0 345 0 5 43 c7 50 42 372 51
472 4 39 13 126 21 195 8 69 14 133 14 142 0 17 -27 18 -387 20 l-388 3 0 305
c0 333 3 354 57 415 16 19 54 44 86 57 54 21 73 23 345 26 l287 3 0 435 0 434
-417 -2 c-230 0 -434 -3 -453 -5z"/>
</g>
</svg>
